<?xml version="1.0" encoding="UTF-8"?>
<svg xmlns="http://www.w3.org/2000/svg" xmlns:xlink="http://www.w3.org/1999/xlink" width="375pt" height="374.999991pt" viewBox="0 0 375 374.999991" version="1.2">
<defs>
<clipPath id="clip1">
  <path d="M 37.5 258 L 289 258 L 289 367.175781 L 37.5 367.175781 Z M 37.5 258 "/>
</clipPath>
<clipPath id="clip2">
  <path d="M 325 33.191406 L 337.5 33.191406 L 337.5 47 L 325 47 Z M 325 33.191406 "/>
</clipPath>
<clipPath id="clip3">
  <path d="M 325 51 L 337.5 51 L 337.5 63.851562 L 325 63.851562 Z M 325 51 "/>
</clipPath>
</defs>
<g id="surface1">
<path style=" stroke:none;fill-rule:nonzero;fill:rgb(100%,100%,100%);fill-opacity:1;" d="M 98.683594 225.457031 C 84.519531 219.394531 74.980469 206.171875 74.40625 191.773438 C 74.214844 186.816406 74.957031 181.976562 76.609375 177.378906 C 79.941406 168.128906 81.234375 160.917969 80.828125 153.996094 C 80.730469 152.367188 80.683594 150.714844 80.683594 149.039062 C 80.683594 126.855469 89.359375 106.015625 105.152344 90.417969 C 120.730469 74.992188 141.292969 66.558594 163.195312 66.558594 C 163.484375 66.558594 163.769531 66.558594 164.082031 66.558594 C 204.894531 66.992188 239.691406 97.820312 245.011719 138.304688 C 245.707031 143.433594 245.875 148.65625 245.585938 153.804688 C 245.179688 160.847656 246.519531 168.320312 249.78125 177.351562 C 251.433594 181.976562 252.199219 186.816406 251.984375 191.773438 C 251.410156 206.171875 241.871094 219.394531 227.707031 225.457031 C 220.085938 228.714844 212.417969 229.265625 204.199219 227.085938 C 203.3125 226.84375 202.328125 227.035156 201.609375 227.613281 C 200.867188 228.1875 200.4375 229.074219 200.4375 229.984375 L 200.4375 254.945312 C 200.4375 256.71875 199 258.15625 197.226562 258.15625 L 187.183594 258.15625 L 187.183594 247.277344 C 187.183594 245.625 185.839844 244.285156 184.1875 244.285156 C 182.511719 244.285156 181.167969 245.625 181.167969 247.277344 L 181.167969 258.15625 L 166.214844 258.15625 L 166.214844 247.277344 C 166.214844 245.625 164.871094 244.285156 163.195312 244.285156 C 161.542969 244.285156 160.199219 245.625 160.199219 247.277344 L 160.199219 258.15625 L 145.222656 258.15625 L 145.222656 247.277344 C 145.222656 245.625 143.878906 244.285156 142.203125 244.285156 C 140.546875 244.285156 139.207031 245.625 139.207031 247.277344 L 139.207031 258.15625 L 129.164062 258.15625 C 127.390625 258.15625 125.953125 256.71875 125.953125 254.945312 L 125.953125 229.984375 C 125.953125 229.074219 125.523438 228.1875 124.78125 227.613281 C 124.253906 227.203125 123.605469 226.988281 122.957031 226.988281 C 122.695312 226.988281 122.429688 227.011719 122.191406 227.085938 C 113.996094 229.265625 106.300781 228.714844 98.683594 225.457031 Z M 129.164062 264.167969 L 197.226562 264.167969 C 202.304688 264.167969 206.453125 260.023438 206.453125 254.945312 L 206.453125 233.742188 C 214.597656 235.207031 222.363281 234.296875 230.082031 230.988281 C 246.375 224.019531 257.328125 208.710938 258 192.015625 C 258.238281 186.289062 257.375 180.660156 255.433594 175.316406 C 252.464844 167.074219 251.21875 160.34375 251.578125 154.164062 C 251.914062 148.605469 251.695312 143.023438 250.976562 137.515625 C 245.273438 94.085938 207.9375 61 164.128906 60.546875 C 163.816406 60.546875 163.507812 60.546875 163.195312 60.546875 C 139.710938 60.546875 117.613281 69.601562 100.910156 86.132812 C 83.992188 102.875 74.644531 125.226562 74.644531 149.039062 C 74.644531 150.835938 74.71875 152.605469 74.8125 154.355469 C 75.195312 160.441406 74 166.910156 70.953125 175.316406 C 69.039062 180.660156 68.175781 186.289062 68.390625 192.015625 C 69.0625 208.710938 80.011719 224.019531 96.308594 230.988281 C 104.027344 234.296875 111.789062 235.207031 119.960938 233.742188 L 119.960938 254.945312 C 119.960938 260.023438 124.085938 264.167969 129.164062 264.167969 "/>
<path style=" stroke:none;fill-rule:nonzero;fill:rgb(100%,100%,100%);fill-opacity:1;" d="M 198.664062 140.101562 C 210.933594 140.101562 220.925781 150.09375 220.925781 162.355469 C 220.925781 174.621094 210.933594 184.613281 198.664062 184.613281 C 186.394531 184.613281 176.398438 174.621094 176.398438 162.355469 C 176.398438 150.09375 186.394531 140.101562 198.664062 140.101562 Z M 198.664062 190.625 C 214.265625 190.625 226.941406 177.929688 226.941406 162.355469 C 226.941406 146.761719 214.265625 134.089844 198.664062 134.089844 C 183.0625 134.089844 170.382812 146.761719 170.382812 162.355469 C 170.382812 177.929688 183.0625 190.625 198.664062 190.625 "/>
<path style=" stroke:none;fill-rule:nonzero;fill:rgb(100%,100%,100%);fill-opacity:1;" d="M 107.285156 162.355469 C 107.285156 150.09375 117.277344 140.101562 129.546875 140.101562 C 141.84375 140.101562 151.8125 150.09375 151.8125 162.355469 C 151.8125 174.621094 141.84375 184.613281 129.546875 184.613281 C 117.277344 184.613281 107.285156 174.621094 107.285156 162.355469 Z M 157.828125 162.355469 C 157.828125 146.761719 145.148438 134.089844 129.546875 134.089844 C 113.972656 134.089844 101.269531 146.761719 101.269531 162.355469 C 101.269531 177.929688 113.972656 190.625 129.546875 190.625 C 145.148438 190.625 157.828125 177.929688 157.828125 162.355469 "/>
<path style=" stroke:none;fill-rule:nonzero;fill:rgb(100%,100%,100%);fill-opacity:1;" d="M 163.195312 199.824219 L 172.0625 215.15625 L 154.328125 215.15625 Z M 146.515625 219.660156 C 147.042969 220.617188 148.050781 221.167969 149.128906 221.167969 L 177.285156 221.167969 C 178.339844 221.167969 179.347656 220.617188 179.875 219.660156 C 180.425781 218.746094 180.425781 217.597656 179.875 216.664062 L 165.808594 192.300781 C 165.757812 192.253906 165.710938 192.230469 165.6875 192.179688 C 165.566406 191.988281 165.421875 191.871094 165.257812 191.703125 C 165.136719 191.582031 164.992188 191.4375 164.847656 191.34375 C 164.777344 191.296875 164.753906 191.246094 164.703125 191.199219 C 164.585938 191.152344 164.464844 191.128906 164.34375 191.078125 C 164.152344 191.007812 163.9375 190.9375 163.746094 190.886719 C 163.578125 190.863281 163.410156 190.863281 163.21875 190.863281 C 163.027344 190.863281 162.8125 190.863281 162.597656 190.886719 C 162.429688 190.9375 162.261719 191.007812 162.09375 191.078125 C 161.949219 191.128906 161.828125 191.128906 161.683594 191.199219 C 161.636719 191.246094 161.613281 191.296875 161.542969 191.34375 C 161.398438 191.4375 161.253906 191.582031 161.132812 191.703125 C 160.988281 191.847656 160.824219 191.988281 160.703125 192.179688 C 160.679688 192.230469 160.628906 192.253906 160.605469 192.300781 L 146.515625 216.664062 C 145.964844 217.597656 145.964844 218.746094 146.515625 219.660156 "/>
<g clip-path="url(#clip1)" clip-rule="nonzero">
<path style=" stroke:none;fill-rule:nonzero;fill:rgb(100%,100%,100%);fill-opacity:1;" d="M 94.03125 314.546875 L 103.210938 345.808594 L 53.4375 360.421875 L 44.234375 329.183594 Z M 63.886719 299.046875 L 73.085938 267.785156 L 226.582031 312.867188 L 217.402344 344.105469 Z M 58.132812 297.34375 L 46.65625 293.96875 L 43.660156 285.703125 L 44.714844 282.132812 C 45.574219 281.078125 46.703125 280 47.15625 279.835938 C 50.34375 279.019531 51.089844 275.691406 50.777344 272.765625 L 52.140625 268.070312 L 57.75 267.878906 C 58.445312 267.855469 59.117188 267.570312 59.644531 267.089844 L 62.375 264.644531 L 67.3125 266.082031 Z M 253.300781 267.785156 L 262.503906 299.046875 L 231.6875 308.101562 L 231.183594 307.933594 L 231.160156 307.933594 L 173.859375 291.117188 Z M 264.015625 264.644531 L 266.746094 267.089844 C 267.273438 267.570312 267.945312 267.855469 268.640625 267.878906 L 274.246094 268.070312 L 275.636719 272.765625 C 275.300781 275.691406 276.042969 279.019531 279.207031 279.835938 C 279.6875 280 280.8125 281.078125 281.675781 282.132812 L 282.730469 285.703125 L 279.734375 293.96875 L 268.28125 297.34375 L 259.078125 266.082031 Z M 282.15625 329.183594 L 272.976562 360.421875 L 223.179688 345.808594 L 232.355469 314.546875 Z M 108.988281 344.105469 L 100.765625 316.125 L 152.53125 331.339844 Z M 37.882812 325.707031 C 37.476562 326.402344 37.402344 327.21875 37.621094 327.984375 L 48.5 364.996094 C 48.882812 366.3125 50.082031 367.175781 51.398438 367.175781 C 51.6875 367.175781 51.949219 367.128906 52.238281 367.054688 L 163.195312 334.476562 L 274.152344 367.054688 C 274.4375 367.128906 274.726562 367.175781 275.015625 367.175781 C 276.308594 367.175781 277.507812 366.3125 277.890625 364.996094 L 288.769531 327.984375 C 289.007812 327.21875 288.914062 326.402344 288.53125 325.707031 C 288.148438 324.988281 287.5 324.488281 286.734375 324.246094 L 242.351562 311.214844 L 267.082031 303.957031 L 282.898438 299.308594 C 283.832031 299.046875 284.550781 298.351562 284.886719 297.441406 L 288.722656 286.804688 C 288.9375 286.207031 288.960938 285.558594 288.769531 284.960938 L 287.285156 279.90625 C 287.1875 279.570312 287.042969 279.257812 286.828125 278.972656 C 286.183594 278.109375 284.050781 275.402344 281.605469 274.324219 C 281.582031 273.964844 281.605469 273.460938 281.652344 273.078125 C 281.75 272.625 281.722656 272.144531 281.582031 271.714844 L 279.398438 264.3125 C 279.039062 263.066406 277.9375 262.203125 276.644531 262.15625 L 269.957031 261.914062 L 266.792969 259.039062 C 266.027344 258.347656 264.925781 258.105469 263.941406 258.394531 L 254.5 261.171875 L 163.195312 287.980469 L 71.890625 261.171875 L 62.472656 258.394531 C 61.464844 258.105469 60.363281 258.347656 59.59375 259.039062 L 56.433594 261.914062 L 49.769531 262.15625 C 48.476562 262.203125 47.347656 263.066406 46.988281 264.3125 L 44.808594 271.714844 C 44.664062 272.144531 44.664062 272.625 44.738281 273.078125 C 44.785156 273.414062 44.832031 273.941406 44.808594 274.324219 C 42.363281 275.402344 40.207031 278.109375 39.585938 278.972656 C 39.371094 279.257812 39.203125 279.570312 39.105469 279.90625 L 37.621094 284.960938 C 37.453125 285.558594 37.453125 286.207031 37.667969 286.804688 L 41.503906 297.441406 C 41.835938 298.351562 42.582031 299.046875 43.492188 299.308594 L 59.308594 303.957031 L 84.039062 311.214844 L 39.65625 324.246094 C 38.890625 324.488281 38.242188 324.988281 37.882812 325.707031 "/>
</g>
<g clip-path="url(#clip2)" clip-rule="nonzero">
<path style=" stroke:none;fill-rule:nonzero;fill:rgb(100%,100%,100%);fill-opacity:1;" d="M 328.238281 46.003906 C 327.449219 46.003906 326.660156 45.71875 326.058594 45.121094 C 324.859375 43.921875 324.859375 41.980469 326.058594 40.785156 L 332.386719 34.460938 C 333.585938 33.261719 335.523438 33.261719 336.722656 34.460938 C 337.921875 35.65625 337.921875 37.597656 336.722656 38.796875 L 330.398438 45.121094 C 329.796875 45.71875 329.03125 46.003906 328.238281 46.003906 "/>
</g>
<g clip-path="url(#clip3)" clip-rule="nonzero">
<path style=" stroke:none;fill-rule:nonzero;fill:rgb(100%,100%,100%);fill-opacity:1;" d="M 334.566406 63.539062 C 333.777344 63.539062 332.984375 63.230469 332.386719 62.628906 L 326.058594 56.304688 C 324.859375 55.109375 324.859375 53.167969 326.058594 51.96875 C 327.257812 50.773438 329.199219 50.773438 330.398438 51.96875 L 336.722656 58.292969 C 337.921875 59.492188 337.921875 61.433594 336.722656 62.628906 C 336.125 63.230469 335.332031 63.539062 334.566406 63.539062 "/>
</g>
<path style=" stroke:none;fill-rule:nonzero;fill:rgb(100%,100%,100%);fill-opacity:1;" d="M 317.023438 46.003906 C 316.234375 46.003906 315.46875 45.71875 314.867188 45.121094 L 308.539062 38.796875 C 307.34375 37.597656 307.34375 35.65625 308.539062 34.460938 C 309.738281 33.261719 311.679688 33.261719 312.878906 34.460938 L 319.207031 40.785156 C 320.402344 41.980469 320.402344 43.921875 319.207031 45.121094 C 318.605469 45.71875 317.816406 46.003906 317.023438 46.003906 "/>
<path style=" stroke:none;fill-rule:nonzero;fill:rgb(100%,100%,100%);fill-opacity:1;" d="M 309.90625 64.332031 C 309.117188 64.332031 308.324219 64.042969 307.726562 63.445312 C 306.527344 62.246094 306.527344 60.308594 307.726562 59.109375 L 314.054688 52.785156 C 315.25 51.585938 317.191406 51.585938 318.390625 52.785156 C 319.589844 53.984375 319.589844 55.921875 318.390625 57.121094 L 312.0625 63.445312 C 311.464844 64.042969 310.699219 64.332031 309.90625 64.332031 "/>
<path style=" stroke:none;fill-rule:nonzero;fill:rgb(100%,100%,100%);fill-opacity:1;" d="M 309.90625 64.332031 C 309.117188 64.332031 308.324219 64.042969 307.726562 63.445312 C 306.527344 62.246094 306.527344 60.308594 307.726562 59.109375 L 314.054688 52.785156 C 315.25 51.585938 317.191406 51.585938 318.390625 52.785156 C 319.589844 53.984375 319.589844 55.921875 318.390625 57.121094 L 312.0625 63.445312 C 311.464844 64.042969 310.699219 64.332031 309.90625 64.332031 "/>
<path style=" stroke:none;fill-rule:nonzero;fill:rgb(100%,100%,100%);fill-opacity:1;" d="M 294.90625 181.664062 C 294.113281 181.664062 293.324219 181.378906 292.722656 180.777344 C 291.527344 179.582031 291.527344 177.640625 292.722656 176.441406 L 299.050781 170.117188 C 300.25 168.921875 302.191406 168.921875 303.386719 170.117188 C 304.585938 171.316406 304.585938 173.257812 303.386719 174.453125 L 297.0625 180.777344 C 296.460938 181.378906 295.695312 181.664062 294.90625 181.664062 "/>
<path style=" stroke:none;fill-rule:nonzero;fill:rgb(100%,100%,100%);fill-opacity:1;" d="M 301.230469 199.175781 C 300.441406 199.175781 299.648438 198.890625 299.050781 198.289062 L 292.722656 191.964844 C 291.527344 190.769531 291.527344 188.828125 292.722656 187.628906 C 293.921875 186.433594 295.863281 186.433594 297.0625 187.628906 L 303.386719 193.953125 C 304.585938 195.152344 304.585938 197.09375 303.386719 198.289062 C 302.789062 198.890625 302 199.175781 301.230469 199.175781 "/>
<path style=" stroke:none;fill-rule:nonzero;fill:rgb(100%,100%,100%);fill-opacity:1;" d="M 283.691406 181.664062 C 282.898438 181.664062 282.132812 181.378906 281.53125 180.777344 L 275.207031 174.453125 C 274.007812 173.257812 274.007812 171.316406 275.207031 170.117188 C 276.40625 168.921875 278.34375 168.921875 279.542969 170.117188 L 285.871094 176.441406 C 287.070312 177.640625 287.070312 179.582031 285.871094 180.777344 C 285.269531 181.378906 284.480469 181.664062 283.691406 181.664062 "/>
<path style=" stroke:none;fill-rule:nonzero;fill:rgb(100%,100%,100%);fill-opacity:1;" d="M 276.570312 199.992188 C 275.78125 199.992188 274.992188 199.703125 274.390625 199.105469 C 273.191406 197.90625 273.191406 195.964844 274.390625 194.769531 L 280.71875 188.445312 C 281.917969 187.246094 283.855469 187.246094 285.054688 188.445312 C 286.253906 189.640625 286.253906 191.582031 285.054688 192.78125 L 278.730469 199.105469 C 278.128906 199.703125 277.363281 199.992188 276.570312 199.992188 "/>
<path style=" stroke:none;fill-rule:nonzero;fill:rgb(100%,100%,100%);fill-opacity:1;" d="M 276.570312 199.992188 C 275.78125 199.992188 274.992188 199.703125 274.390625 199.105469 C 273.191406 197.90625 273.191406 195.964844 274.390625 194.769531 L 280.71875 188.445312 C 281.917969 187.246094 283.855469 187.246094 285.054688 188.445312 C 286.253906 189.640625 286.253906 191.582031 285.054688 192.78125 L 278.730469 199.105469 C 278.128906 199.703125 277.363281 199.992188 276.570312 199.992188 "/>
<path style=" stroke:none;fill-rule:nonzero;fill:rgb(100%,100%,100%);fill-opacity:1;" d="M 201.539062 21.09375 C 200.746094 21.09375 199.980469 20.804688 199.382812 20.207031 C 198.183594 19.007812 198.183594 17.066406 199.382812 15.871094 L 205.683594 9.546875 C 206.882812 8.347656 208.824219 8.347656 210.023438 9.546875 C 211.21875 10.742188 211.21875 12.683594 210.023438 13.882812 L 203.71875 20.207031 C 203.121094 20.804688 202.328125 21.09375 201.539062 21.09375 "/>
<path style=" stroke:none;fill-rule:nonzero;fill:rgb(100%,100%,100%);fill-opacity:1;" d="M 207.863281 38.628906 C 207.074219 38.628906 206.285156 38.316406 205.683594 37.71875 L 199.382812 31.394531 C 198.183594 30.195312 198.183594 28.253906 199.382812 27.058594 C 200.578125 25.859375 202.519531 25.859375 203.71875 27.058594 L 210.023438 33.382812 C 211.21875 34.578125 211.21875 36.519531 210.023438 37.71875 C 209.421875 38.316406 208.65625 38.628906 207.863281 38.628906 "/>
<path style=" stroke:none;fill-rule:nonzero;fill:rgb(100%,100%,100%);fill-opacity:1;" d="M 190.324219 21.09375 C 189.554688 21.09375 188.765625 20.804688 188.167969 20.207031 L 181.839844 13.882812 C 180.640625 12.683594 180.640625 10.742188 181.839844 9.546875 C 183.039062 8.347656 184.980469 8.347656 186.175781 9.546875 L 192.503906 15.871094 C 193.703125 17.066406 193.703125 19.007812 192.503906 20.207031 C 191.90625 20.804688 191.113281 21.09375 190.324219 21.09375 "/>
<path style=" stroke:none;fill-rule:nonzero;fill:rgb(100%,100%,100%);fill-opacity:1;" d="M 183.207031 39.417969 C 182.414062 39.417969 181.648438 39.128906 181.046875 38.53125 C 179.851562 37.332031 179.851562 35.394531 181.046875 34.195312 L 187.351562 27.871094 C 188.550781 26.671875 190.492188 26.671875 191.6875 27.871094 C 192.886719 29.070312 192.886719 31.007812 191.6875 32.207031 L 185.386719 38.53125 C 184.789062 39.128906 183.996094 39.417969 183.207031 39.417969 "/>
<path style=" stroke:none;fill-rule:nonzero;fill:rgb(100%,100%,100%);fill-opacity:1;" d="M 183.207031 39.417969 C 182.414062 39.417969 181.648438 39.128906 181.046875 38.53125 C 179.851562 37.332031 179.851562 35.394531 181.046875 34.195312 L 187.351562 27.871094 C 188.550781 26.671875 190.492188 26.671875 191.6875 27.871094 C 192.886719 29.070312 192.886719 31.007812 191.6875 32.207031 L 185.386719 38.53125 C 184.789062 39.128906 183.996094 39.417969 183.207031 39.417969 "/>
<path style=" stroke:none;fill-rule:nonzero;fill:rgb(100%,100%,100%);fill-opacity:1;" d="M 271.515625 82.679688 C 268.230469 82.679688 265.570312 85.339844 265.570312 88.621094 C 265.570312 91.902344 268.230469 94.5625 271.515625 94.5625 C 274.773438 94.5625 277.433594 91.902344 277.433594 88.621094 C 277.433594 85.339844 274.773438 82.679688 271.515625 82.679688 Z M 271.515625 100.695312 C 264.851562 100.695312 259.4375 95.28125 259.4375 88.621094 C 259.4375 81.960938 264.851562 76.546875 271.515625 76.546875 C 278.152344 76.546875 283.570312 81.960938 283.570312 88.621094 C 283.570312 95.28125 278.152344 100.695312 271.515625 100.695312 "/>
<path style=" stroke:none;fill-rule:nonzero;fill:rgb(100%,100%,100%);fill-opacity:1;" d="M 309.90625 128.148438 C 306.625 128.148438 303.964844 130.808594 303.964844 134.089844 C 303.964844 137.347656 306.625 140.007812 309.90625 140.007812 C 313.167969 140.007812 315.851562 137.347656 315.851562 134.089844 C 315.851562 130.808594 313.167969 128.148438 309.90625 128.148438 Z M 309.90625 146.140625 C 303.246094 146.140625 297.828125 140.726562 297.828125 134.089844 C 297.828125 127.429688 303.246094 122.015625 309.90625 122.015625 C 316.570312 122.015625 321.984375 127.429688 321.984375 134.089844 C 321.984375 140.726562 316.570312 146.140625 309.90625 146.140625 "/>
<path style=" stroke:none;fill-rule:nonzero;fill:rgb(100%,100%,100%);fill-opacity:1;" d="M 269.453125 27.105469 C 266.171875 27.105469 263.511719 29.765625 263.511719 33.046875 C 263.511719 36.304688 266.171875 38.960938 269.453125 38.960938 C 272.714844 38.960938 275.375 36.304688 275.375 33.046875 C 275.375 29.765625 272.714844 27.105469 269.453125 27.105469 Z M 269.453125 45.09375 C 262.792969 45.09375 257.375 39.679688 257.375 33.046875 C 257.375 26.386719 262.792969 20.972656 269.453125 20.972656 C 276.09375 20.972656 281.507812 26.386719 281.507812 33.046875 C 281.507812 39.679688 276.09375 45.09375 269.453125 45.09375 "/>
</g>
</svg>
